<svg width="123" height="27" viewBox="0 0 123 27" fill="none" xmlns="http://www.w3.org/2000/svg">
<rect width="123" height="27" rx="13.5" fill="#B00020"/>
<path d="M36.7136 15.952C36.7136 15.504 36.611 15.0933 36.4056 14.72C36.2003 14.3373 35.911 14.0387 35.5376 13.824C35.463 13.7773 35.3556 13.726 35.2156 13.67C35.085 13.614 34.9823 13.5767 34.9076 13.558C35.225 13.3527 35.463 13.0913 35.6216 12.774C35.7896 12.4473 35.8736 12.088 35.8736 11.696C35.8736 11.2573 35.785 10.8653 35.6076 10.52C35.4303 10.1653 35.1923 9.86667 34.8936 9.624C34.6043 9.38133 34.2683 9.19933 33.8856 9.078C33.503 8.94733 33.1063 8.882 32.6956 8.882H30.4556C30.129 8.882 29.8536 8.98933 29.6296 9.204C29.415 9.41867 29.3076 9.68933 29.3076 10.016V18.976C29.5223 18.9667 29.821 18.962 30.2036 18.962C30.5863 18.962 30.9876 18.962 31.4076 18.962C31.8276 18.962 32.229 18.962 32.6116 18.962C33.0036 18.962 33.307 18.962 33.5216 18.962C33.9603 18.962 34.371 18.892 34.7536 18.752C35.1456 18.6027 35.4863 18.3973 35.7756 18.136C36.065 17.8747 36.2936 17.562 36.4616 17.198C36.6296 16.8247 36.7136 16.4093 36.7136 15.952ZM31.5476 10.814H32.6116C32.7516 10.814 32.887 10.842 33.0176 10.898C33.1576 10.9447 33.279 11.0147 33.3816 11.108C33.4843 11.192 33.5683 11.2947 33.6336 11.416C33.699 11.5373 33.7316 11.6727 33.7316 11.822C33.7316 11.9807 33.6943 12.1253 33.6196 12.256C33.5543 12.3773 33.4656 12.4847 33.3536 12.578C33.2416 12.6713 33.1156 12.7413 32.9756 12.788C32.8356 12.8347 32.691 12.858 32.5416 12.858H31.5476V10.814ZM31.5336 14.692H33.2696C33.4283 14.692 33.5776 14.7247 33.7176 14.79C33.867 14.846 33.9976 14.93 34.1096 15.042C34.2216 15.1447 34.3103 15.266 34.3756 15.406C34.441 15.546 34.4736 15.7 34.4736 15.868C34.4736 16.036 34.441 16.19 34.3756 16.33C34.3103 16.47 34.2216 16.5913 34.1096 16.694C33.9976 16.7967 33.867 16.8807 33.7176 16.946C33.5683 17.002 33.4143 17.03 33.2556 17.03H31.5336V14.692Z" fill="white"/>
<path d="M44.9284 14.93C44.9284 14.4447 44.8304 13.9873 44.6344 13.558C44.4384 13.1193 44.1771 12.7367 43.8504 12.41C43.5238 12.0833 43.1411 11.8267 42.7024 11.64C42.2638 11.444 41.8064 11.346 41.3304 11.346C40.7891 11.346 40.2851 11.4487 39.8184 11.654C39.3611 11.85 38.9598 12.1207 38.6144 12.466C38.2784 12.8113 38.0124 13.2173 37.8164 13.684C37.6298 14.1507 37.5364 14.6547 37.5364 15.196C37.5364 15.784 37.6391 16.316 37.8444 16.792C38.0498 17.268 38.3344 17.6787 38.6984 18.024C39.0624 18.36 39.4871 18.6213 39.9724 18.808C40.4671 18.9947 40.9991 19.088 41.5684 19.088C41.9231 19.088 42.2591 19.0553 42.5764 18.99C42.9031 18.934 43.2298 18.8407 43.5564 18.71L43.2624 17.058C43.0104 17.114 42.7538 17.17 42.4924 17.226C42.2404 17.2727 41.9884 17.296 41.7364 17.296C41.2604 17.296 40.8498 17.1607 40.5044 16.89C40.1591 16.6193 39.9351 16.26 39.8324 15.812H43.9204C44.2471 15.812 44.4944 15.756 44.6624 15.644C44.8398 15.5227 44.9284 15.2847 44.9284 14.93ZM39.8324 14.594C39.8604 14.3887 39.9071 14.1927 39.9724 14.006C40.0471 13.81 40.1404 13.6373 40.2524 13.488C40.3738 13.3387 40.5184 13.222 40.6864 13.138C40.8638 13.0447 41.0691 12.998 41.3024 12.998C41.5171 12.998 41.7084 13.0447 41.8764 13.138C42.0444 13.2313 42.1844 13.3527 42.2964 13.502C42.4178 13.6513 42.5111 13.824 42.5764 14.02C42.6511 14.2067 42.6931 14.398 42.7024 14.594H39.8324Z" fill="white"/>
<path d="M47.9109 18.962V9.092C47.9109 8.80267 47.8082 8.55067 47.6029 8.336C47.3975 8.12133 47.1455 8.014 46.8469 8.014C46.5482 8.014 46.2915 8.11667 46.0769 8.322C45.8622 8.52733 45.7549 8.784 45.7549 9.092V18.976L47.9109 18.962Z" fill="white"/>
<path d="M55.64 15.868V12.424C55.64 12.1253 55.5326 11.8733 55.318 11.668C55.1126 11.4533 54.8606 11.346 54.562 11.346C54.4126 11.346 54.2726 11.374 54.142 11.43C54.0113 11.486 53.8946 11.5653 53.792 11.668C53.6986 11.7613 53.624 11.878 53.568 12.018C53.512 12.1487 53.484 12.2887 53.484 12.438V15.854C53.484 16.274 53.3813 16.6053 53.176 16.848C52.9706 17.0907 52.6533 17.212 52.224 17.212C51.7853 17.212 51.4633 17.0907 51.258 16.848C51.0526 16.596 50.95 16.2647 50.95 15.854V11.542H48.794V15.882C48.794 16.9833 49.0973 17.7953 49.704 18.318C50.3106 18.8407 51.1506 19.102 52.224 19.102C53.2973 19.102 54.1326 18.8407 54.73 18.318C55.3366 17.7953 55.64 16.9787 55.64 15.868Z" fill="white"/>
<path d="M67.5145 18.01V13.95C67.5145 13.5487 67.4445 13.1893 67.3045 12.872C67.1645 12.5453 66.9685 12.27 66.7165 12.046C66.4738 11.8127 66.1845 11.6353 65.8485 11.514C65.5125 11.3927 65.1485 11.332 64.7565 11.332C64.3085 11.332 63.8792 11.4253 63.4685 11.612C63.0672 11.7893 62.7265 12.046 62.4465 12.382C62.2038 12.0367 61.8865 11.7707 61.4945 11.584C61.1118 11.3973 60.7058 11.304 60.2765 11.304C59.9125 11.304 59.5578 11.3833 59.2125 11.542C58.8765 11.6913 58.6012 11.92 58.3865 12.228C58.3678 11.976 58.2932 11.766 58.1625 11.598C58.0318 11.4207 57.8265 11.332 57.5465 11.332C57.2198 11.332 56.9538 11.4347 56.7485 11.64C56.5525 11.836 56.4545 12.0973 56.4545 12.424V18.962H58.5965V14.314C58.5965 13.9873 58.7085 13.7167 58.9325 13.502C59.1658 13.278 59.4458 13.166 59.7725 13.166C60.0898 13.166 60.3605 13.2827 60.5845 13.516C60.8178 13.74 60.9345 14.0153 60.9345 14.342V18.962H63.0485V14.342C63.0485 14.0247 63.1605 13.754 63.3845 13.53C63.6085 13.306 63.8838 13.194 64.2105 13.194C64.5372 13.194 64.8078 13.3107 65.0225 13.544C65.2465 13.768 65.3585 14.0387 65.3585 14.356V18.01C65.3585 18.3087 65.4658 18.5653 65.6805 18.78C65.8952 18.9853 66.1518 19.088 66.4505 19.088C66.7492 19.088 67.0012 18.9853 67.2065 18.78C67.4118 18.5653 67.5145 18.3087 67.5145 18.01Z" fill="white"/>
<path d="M81.4182 13.866C81.4182 13.6793 81.4089 13.4973 81.3902 13.32C81.3809 13.1333 81.3576 12.9467 81.3202 12.76C81.1896 12.144 80.9749 11.598 80.6762 11.122C80.3869 10.6367 80.0229 10.2307 79.5842 9.904C79.1549 9.568 78.6649 9.316 78.1142 9.148C77.5729 8.97067 76.9849 8.882 76.3502 8.882C76.1729 8.882 75.9209 8.882 75.5942 8.882C75.2676 8.882 74.9269 8.882 74.5722 8.882C74.2176 8.882 73.8769 8.882 73.5502 8.882C73.2236 8.882 72.9762 8.87733 72.8082 8.868V17.856C72.8082 18.1733 72.9202 18.4393 73.1442 18.654C73.3682 18.8593 73.6389 18.962 73.9562 18.962H76.5742C77.3116 18.962 77.9789 18.8313 78.5762 18.57C79.1736 18.3087 79.6822 17.9493 80.1022 17.492C80.5222 17.0347 80.8442 16.498 81.0682 15.882C81.3016 15.2567 81.4182 14.5847 81.4182 13.866ZM76.3222 10.828C76.7609 10.828 77.1529 10.9073 77.4982 11.066C77.8529 11.2247 78.1516 11.444 78.3942 11.724C78.6462 12.004 78.8376 12.3307 78.9682 12.704C79.0989 13.0773 79.1642 13.474 79.1642 13.894C79.1642 14.3233 79.1036 14.7293 78.9822 15.112C78.8609 15.4853 78.6789 15.8167 78.4362 16.106C78.2029 16.386 77.9136 16.61 77.5682 16.778C77.2229 16.946 76.8216 17.03 76.3642 17.03H75.0342V10.828H76.3222Z" fill="white"/>
<path d="M83.1793 8.742C82.9646 8.742 82.778 8.82133 82.6193 8.98C82.47 9.12933 82.3953 9.31133 82.3953 9.526C82.3953 9.75 82.4746 9.94133 82.6333 10.1C82.792 10.2493 82.9786 10.324 83.1933 10.324C83.408 10.324 83.59 10.2493 83.7393 10.1C83.898 9.94133 83.9773 9.75 83.9773 9.526C83.9773 9.31133 83.898 9.12933 83.7393 8.98C83.5806 8.82133 83.394 8.742 83.1793 8.742ZM84.3133 18.962V12.41C84.3133 12.27 84.2853 12.1347 84.2293 12.004C84.1733 11.8733 84.094 11.7613 83.9913 11.668C83.898 11.5653 83.786 11.486 83.6553 11.43C83.534 11.3647 83.3986 11.332 83.2493 11.332C82.9506 11.332 82.694 11.4347 82.4793 11.64C82.2646 11.8453 82.1573 12.102 82.1573 12.41V18.962H84.3133Z" fill="white"/>
<path d="M89.17 11.402C88.4886 11.402 87.854 11.5233 87.266 11.766C86.6873 11.9993 86.2066 12.382 85.824 12.914C85.6 13.2313 85.418 13.5907 85.278 13.992C85.138 14.384 85.068 14.79 85.068 15.21C85.068 15.7607 85.1613 16.2693 85.348 16.736C85.5346 17.2027 85.796 17.6133 86.132 17.968C86.468 18.3133 86.8646 18.584 87.322 18.78C87.7793 18.976 88.2833 19.074 88.834 19.074C88.8433 19.0833 88.8573 19.088 88.876 19.088C88.904 19.088 88.9226 19.0833 88.932 19.074C89.1466 19.074 89.394 19.0553 89.674 19.018C89.954 18.99 90.22 18.9293 90.472 18.836C90.724 18.7333 90.9386 18.5933 91.116 18.416C91.2933 18.2387 91.382 18.01 91.382 17.73C91.382 17.4873 91.2886 17.2727 91.102 17.086C90.9153 16.8993 90.696 16.806 90.444 16.806C90.3506 16.806 90.2433 16.8247 90.122 16.862C90.0006 16.8993 89.87 16.9413 89.73 16.988C89.59 17.0253 89.4453 17.0627 89.296 17.1C89.156 17.128 89.016 17.142 88.876 17.142C88.6146 17.142 88.3813 17.086 88.176 16.974C87.98 16.8527 87.812 16.7033 87.672 16.526C87.532 16.3393 87.4246 16.1293 87.35 15.896C87.2846 15.6627 87.252 15.4293 87.252 15.196C87.252 14.944 87.2893 14.706 87.364 14.482C87.4386 14.2487 87.546 14.048 87.686 13.88C87.826 13.7027 87.9986 13.5627 88.204 13.46C88.4186 13.3573 88.6613 13.306 88.932 13.306C89.2306 13.306 89.534 13.3667 89.842 13.488C90.1593 13.6 90.4626 13.7027 90.752 13.796C90.7706 13.684 90.8033 13.544 90.85 13.376C90.906 13.208 90.962 13.0353 91.018 12.858C91.074 12.6713 91.1253 12.494 91.172 12.326C91.2186 12.158 91.2466 12.018 91.256 11.906C90.9106 11.738 90.5746 11.612 90.248 11.528C89.9213 11.444 89.562 11.402 89.17 11.402Z" fill="white"/>
<path d="M99.2468 14.93C99.2468 14.4447 99.1488 13.9873 98.9528 13.558C98.7568 13.1193 98.4955 12.7367 98.1688 12.41C97.8421 12.0833 97.4595 11.8267 97.0208 11.64C96.5821 11.444 96.1248 11.346 95.6488 11.346C95.1075 11.346 94.6035 11.4487 94.1368 11.654C93.6795 11.85 93.2781 12.1207 92.9328 12.466C92.5968 12.8113 92.3308 13.2173 92.1348 13.684C91.9481 14.1507 91.8548 14.6547 91.8548 15.196C91.8548 15.784 91.9575 16.316 92.1628 16.792C92.3681 17.268 92.6528 17.6787 93.0168 18.024C93.3808 18.36 93.8055 18.6213 94.2908 18.808C94.7855 18.9947 95.3175 19.088 95.8868 19.088C96.2415 19.088 96.5775 19.0553 96.8948 18.99C97.2215 18.934 97.5481 18.8407 97.8748 18.71L97.5808 17.058C97.3288 17.114 97.0721 17.17 96.8108 17.226C96.5588 17.2727 96.3068 17.296 96.0548 17.296C95.5788 17.296 95.1681 17.1607 94.8228 16.89C94.4775 16.6193 94.2535 16.26 94.1508 15.812H98.2388C98.5655 15.812 98.8128 15.756 98.9808 15.644C99.1581 15.5227 99.2468 15.2847 99.2468 14.93ZM94.1508 14.594C94.1788 14.3887 94.2255 14.1927 94.2908 14.006C94.3655 13.81 94.4588 13.6373 94.5708 13.488C94.6921 13.3387 94.8368 13.222 95.0048 13.138C95.1821 13.0447 95.3875 12.998 95.6208 12.998C95.8355 12.998 96.0268 13.0447 96.1948 13.138C96.3628 13.2313 96.5028 13.3527 96.6148 13.502C96.7361 13.6513 96.8295 13.824 96.8948 14.02C96.9695 14.2067 97.0115 14.398 97.0208 14.594H94.1508Z" fill="white"/>
<path d="M106.639 17.94L103.671 14.748C103.709 14.7107 103.783 14.6453 103.895 14.552C104.017 14.4493 104.152 14.3327 104.301 14.202C104.46 14.0713 104.623 13.936 104.791 13.796C104.959 13.656 105.113 13.5207 105.253 13.39C105.393 13.25 105.51 13.124 105.603 13.012C105.706 12.9 105.767 12.816 105.785 12.76C105.832 12.704 105.869 12.6433 105.897 12.578C105.925 12.5033 105.939 12.4287 105.939 12.354C105.939 12.074 105.837 11.836 105.631 11.64C105.426 11.444 105.183 11.346 104.903 11.346C104.735 11.346 104.577 11.388 104.427 11.472C104.287 11.556 104.152 11.6587 104.021 11.78L101.977 13.726V9.078C101.977 8.77933 101.875 8.52733 101.669 8.322C101.464 8.10733 101.212 8 100.913 8C100.615 8 100.358 8.10733 100.143 8.322C99.9379 8.52733 99.8352 8.77933 99.8352 9.078V18.948L101.977 18.962V15.714L104.917 19.186L106.639 17.94Z" fill="white"/>
<rect x="3" y="3" width="21" height="21" rx="10.5" fill="#950721"/>
<path d="M12.6317 14.3754C12.6735 14.8104 12.7443 15.1337 12.8418 15.347C12.9404 15.5596 13.1156 15.6657 13.3684 15.6657C13.4157 15.6657 13.4579 15.6583 13.4999 15.6497C13.5428 15.6583 13.585 15.6657 13.6326 15.6657C13.8847 15.6657 14.0604 15.5596 14.1585 15.347C14.2565 15.1337 14.3261 14.8104 14.3687 14.3754L14.5932 11.0166C14.6349 10.362 14.6562 9.89223 14.6562 9.60709C14.6562 9.21899 14.555 8.91615 14.3519 8.69873C14.148 8.4813 13.8802 8.37285 13.5485 8.37285C13.5308 8.37285 13.5176 8.3768 13.5002 8.37749C13.4837 8.3768 13.4701 8.37285 13.453 8.37285C13.1205 8.37285 12.8533 8.4813 12.6498 8.69873C12.4465 8.91649 12.3445 9.21951 12.3445 9.60726C12.3445 9.8924 12.3653 10.3621 12.4078 11.0168L12.6317 14.3754ZM13.5086 16.8934C13.2782 16.8934 13.0726 16.9454 12.891 17.0494C12.8188 17.0907 12.7504 17.1403 12.6857 17.1981C12.6364 17.2422 12.5925 17.2884 12.5539 17.3366C12.4146 17.5106 12.3449 17.7111 12.3449 17.938C12.3449 18.197 12.417 18.4123 12.5605 18.5835C12.5983 18.6286 12.641 18.6706 12.6886 18.7096C12.9182 18.8966 13.186 18.9901 13.4921 18.9901C13.8037 18.9901 14.0755 18.898 14.3079 18.7132C14.3555 18.6753 14.3983 18.6343 14.4362 18.5902C14.5827 18.4195 14.6559 18.202 14.6559 17.9384C14.6559 17.7127 14.5885 17.513 14.4538 17.3397C14.4156 17.2905 14.3719 17.2434 14.3228 17.1985C14.2602 17.1411 14.1937 17.0918 14.1233 17.0506C13.944 16.9458 13.7393 16.8934 13.5086 16.8934Z" fill="white"/>
<path fill-rule="evenodd" clip-rule="evenodd" d="M12.4322 14.3887L12.2082 11.0301C12.1657 10.375 12.1445 9.89938 12.1445 9.60726C12.1445 9.18451 12.2563 8.82709 12.5036 8.56223C12.7495 8.2995 13.0723 8.17285 13.453 8.17285C13.4733 8.17285 13.4906 8.17493 13.5006 8.17629C13.5105 8.17493 13.5279 8.17285 13.5485 8.17285C13.9285 8.17285 14.2516 8.29932 14.4978 8.56193C14.7451 8.82668 14.8563 9.18437 14.8563 9.60709C14.8563 9.89924 14.8345 10.3746 14.7928 11.0294L14.5678 14.3949C14.5246 14.8362 14.4524 15.1863 14.3402 15.4305C14.2769 15.5678 14.1833 15.6806 14.0569 15.7572C13.9314 15.8331 13.7867 15.8657 13.6326 15.8657C13.5827 15.8657 13.5382 15.8599 13.5002 15.8533C13.4623 15.86 13.4179 15.8657 13.3684 15.8657C13.214 15.8657 13.0692 15.8331 12.9437 15.7572C12.8172 15.6806 12.7239 15.5682 12.6603 15.4312L12.6599 15.4301C12.5485 15.1864 12.4751 14.8367 12.4326 14.3945L12.4322 14.3887ZM13.4999 15.6497C13.5428 15.6583 13.585 15.6657 13.6326 15.6657C13.8847 15.6657 14.0604 15.5596 14.1585 15.347C14.2565 15.1337 14.3261 14.8104 14.3687 14.3754L14.5932 11.0166C14.6349 10.362 14.6562 9.89223 14.6562 9.60709C14.6562 9.21899 14.555 8.91615 14.3519 8.69873C14.148 8.4813 13.8802 8.37285 13.5485 8.37285C13.5389 8.37285 13.5306 8.37402 13.5222 8.3752C13.5152 8.37618 13.5081 8.37718 13.5002 8.37749C13.4928 8.37718 13.4859 8.3762 13.479 8.37523C13.4707 8.37404 13.4624 8.37285 13.453 8.37285C13.1205 8.37285 12.8533 8.4813 12.6498 8.69873C12.4465 8.91649 12.3445 9.21951 12.3445 9.60726C12.3445 9.8924 12.3653 10.3621 12.4078 11.0168L12.6317 14.3754C12.6735 14.8104 12.7443 15.1337 12.8418 15.347C12.9404 15.5596 13.1156 15.6657 13.3684 15.6657C13.4157 15.6657 13.4579 15.6583 13.4999 15.6497ZM12.5524 17.049C12.8184 16.8112 13.1402 16.6934 13.5086 16.6934C13.8763 16.6934 14.1964 16.8113 14.4579 17.051M12.562 18.8644C12.2818 18.6352 12.1449 18.3181 12.1449 17.938C12.1449 17.5881 12.2855 17.288 12.5524 17.049M12.6857 17.1981C12.7504 17.1403 12.8188 17.0907 12.891 17.0494C13.0726 16.9454 13.2782 16.8934 13.5086 16.8934C13.7393 16.8934 13.944 16.9458 14.1233 17.0506C14.1937 17.0918 14.2602 17.1411 14.3228 17.1985C14.3719 17.2434 14.4156 17.2905 14.4538 17.3397C14.5885 17.513 14.6559 17.7127 14.6559 17.9384C14.6559 18.202 14.5827 18.4195 14.4362 18.5902C14.3983 18.6343 14.3555 18.6753 14.3079 18.7132C14.0755 18.898 13.8037 18.9901 13.4921 18.9901C13.186 18.9901 12.9182 18.8966 12.6886 18.7096C12.641 18.6706 12.5983 18.6286 12.5605 18.5835C12.417 18.4123 12.3449 18.197 12.3449 17.938M12.562 18.8644C12.8286 19.0815 13.1417 19.1901 13.4921 19.1901ZM13.4921 19.1901C13.8464 19.1901 14.1626 19.0842 14.4322 18.8698ZM14.4322 18.8698C14.7183 18.6426 14.8559 18.3226 14.8559 17.9384C14.8559 17.5902 14.7195 17.2905 14.4579 17.051" fill="white"/>
<path d="M12.6857 17.1981C12.7504 17.1403 12.8188 17.0907 12.891 17.0494L12.5524 17.049L12.5539 17.3366C12.5925 17.2884 12.6364 17.2422 12.6857 17.1981Z" fill="white"/>
<path d="M14.3228 17.1985C14.3719 17.2434 14.4156 17.2905 14.4538 17.3397L14.4579 17.051L14.1233 17.0506C14.1937 17.0918 14.2602 17.1411 14.3228 17.1985Z" fill="white"/>
<path d="M12.6886 18.7096C12.641 18.6706 12.5983 18.6286 12.5605 18.5835L12.562 18.8644L13.4921 19.1901L14.4322 18.8698L14.4362 18.5902C14.3983 18.6343 14.3555 18.6753 14.3079 18.7132C14.0755 18.898 13.8037 18.9901 13.4921 18.9901C13.186 18.9901 12.9182 18.8966 12.6886 18.7096Z" fill="white"/>
</svg>
