<svg width="123" height="27" viewBox="0 0 123 27" fill="none" xmlns="http://www.w3.org/2000/svg">
<rect width="122.62" height="27" rx="13.5" fill="#43A047"/>
<path d="M37.61 13.866C37.61 13.6793 37.6007 13.4973 37.582 13.32C37.5727 13.1333 37.5493 12.9467 37.512 12.76C37.3813 12.144 37.1667 11.598 36.868 11.122C36.5787 10.6367 36.2147 10.2307 35.776 9.904C35.3467 9.568 34.8567 9.316 34.306 9.148C33.7647 8.97067 33.1767 8.882 32.542 8.882C32.3647 8.882 32.1127 8.882 31.786 8.882C31.4593 8.882 31.1187 8.882 30.764 8.882C30.4093 8.882 30.0687 8.882 29.742 8.882C29.4153 8.882 29.168 8.87733 29 8.868V17.856C29 18.1733 29.112 18.4393 29.336 18.654C29.56 18.8593 29.8307 18.962 30.148 18.962H32.766C33.5033 18.962 34.1707 18.8313 34.768 18.57C35.3653 18.3087 35.874 17.9493 36.294 17.492C36.714 17.0347 37.036 16.498 37.26 15.882C37.4933 15.2567 37.61 14.5847 37.61 13.866ZM32.514 10.828C32.9527 10.828 33.3447 10.9073 33.69 11.066C34.0447 11.2247 34.3433 11.444 34.586 11.724C34.838 12.004 35.0293 12.3307 35.16 12.704C35.2907 13.0773 35.356 13.474 35.356 13.894C35.356 14.3233 35.2953 14.7293 35.174 15.112C35.0527 15.4853 34.8707 15.8167 34.628 16.106C34.3947 16.386 34.1053 16.61 33.76 16.778C33.4147 16.946 33.0133 17.03 32.556 17.03H31.226V10.828H32.514Z" fill="white"/>
<path d="M39.371 8.742C39.1564 8.742 38.9697 8.82133 38.811 8.98C38.6617 9.12933 38.587 9.31133 38.587 9.526C38.587 9.75 38.6664 9.94133 38.825 10.1C38.9837 10.2493 39.1704 10.324 39.385 10.324C39.5997 10.324 39.7817 10.2493 39.931 10.1C40.0897 9.94133 40.169 9.75 40.169 9.526C40.169 9.31133 40.0897 9.12933 39.931 8.98C39.7724 8.82133 39.5857 8.742 39.371 8.742ZM40.505 18.962V12.41C40.505 12.27 40.477 12.1347 40.421 12.004C40.365 11.8733 40.2857 11.7613 40.183 11.668C40.0897 11.5653 39.9777 11.486 39.847 11.43C39.7257 11.3647 39.5904 11.332 39.441 11.332C39.1424 11.332 38.8857 11.4347 38.671 11.64C38.4564 11.8453 38.349 12.102 38.349 12.41V18.962H40.505Z" fill="white"/>
<path d="M48.1337 17.94L45.1657 14.748C45.2031 14.7107 45.2777 14.6453 45.3897 14.552C45.5111 14.4493 45.6464 14.3327 45.7957 14.202C45.9544 14.0713 46.1177 13.936 46.2857 13.796C46.4537 13.656 46.6077 13.5207 46.7477 13.39C46.8877 13.25 47.0044 13.124 47.0977 13.012C47.2004 12.9 47.2611 12.816 47.2797 12.76C47.3264 12.704 47.3637 12.6433 47.3917 12.578C47.4197 12.5033 47.4337 12.4287 47.4337 12.354C47.4337 12.074 47.3311 11.836 47.1257 11.64C46.9204 11.444 46.6777 11.346 46.3977 11.346C46.2297 11.346 46.0711 11.388 45.9217 11.472C45.7817 11.556 45.6464 11.6587 45.5157 11.78L43.4717 13.726V9.078C43.4717 8.77933 43.3691 8.52733 43.1637 8.322C42.9584 8.10733 42.7064 8 42.4077 8C42.1091 8 41.8524 8.10733 41.6377 8.322C41.4324 8.52733 41.3297 8.77933 41.3297 9.078V18.948L43.4717 18.962V15.714L46.4117 19.186L48.1337 17.94Z" fill="white"/>
<path d="M55.5646 15.196C55.5646 14.6733 55.4712 14.1787 55.2846 13.712C55.0979 13.236 54.8366 12.8207 54.5006 12.466C54.1739 12.1113 53.7819 11.8313 53.3246 11.626C52.8766 11.4207 52.3819 11.318 51.8406 11.318C51.2992 11.318 50.7999 11.4253 50.3426 11.64C49.8946 11.8453 49.5026 12.1253 49.1666 12.48C48.8399 12.8347 48.5832 13.25 48.3966 13.726C48.2099 14.1927 48.1166 14.692 48.1166 15.224C48.1166 15.7467 48.2099 16.246 48.3966 16.722C48.5832 17.1887 48.8399 17.5993 49.1666 17.954C49.5026 18.3087 49.8992 18.5933 50.3566 18.808C50.8139 19.0133 51.3132 19.116 51.8546 19.116C52.3959 19.116 52.8906 19.0133 53.3386 18.808C53.7959 18.5933 54.1879 18.3087 54.5146 17.954C54.8412 17.59 55.0979 17.1747 55.2846 16.708C55.4712 16.232 55.5646 15.728 55.5646 15.196ZM53.4226 15.21C53.4226 15.4527 53.3899 15.7 53.3246 15.952C53.2686 16.1947 53.1752 16.414 53.0446 16.61C52.9232 16.806 52.7599 16.9693 52.5546 17.1C52.3586 17.2213 52.1206 17.282 51.8406 17.282C51.5699 17.282 51.3319 17.2213 51.1266 17.1C50.9306 16.9693 50.7672 16.806 50.6366 16.61C50.5152 16.4047 50.4219 16.1807 50.3566 15.938C50.3006 15.686 50.2726 15.4433 50.2726 15.21C50.2726 14.9767 50.3052 14.7433 50.3706 14.51C50.4359 14.2673 50.5292 14.048 50.6506 13.852C50.7812 13.656 50.9446 13.4973 51.1406 13.376C51.3366 13.2547 51.5699 13.194 51.8406 13.194C52.1112 13.194 52.3446 13.2547 52.5406 13.376C52.7459 13.4973 52.9139 13.656 53.0446 13.852C53.1752 14.0387 53.2686 14.2533 53.3246 14.496C53.3899 14.7387 53.4226 14.9767 53.4226 15.21Z" fill="white"/>
<path d="M63.4701 18.01V14.076C63.4701 13.656 63.3954 13.278 63.2461 12.942C63.0967 12.606 62.8867 12.3213 62.6161 12.088C62.3547 11.8453 62.0467 11.6587 61.6921 11.528C61.3374 11.3973 60.9594 11.332 60.5581 11.332C60.1661 11.332 59.7927 11.4113 59.4381 11.57C59.0834 11.7287 58.7941 11.9713 58.5701 12.298C58.5327 12.046 58.4487 11.8173 58.3181 11.612C58.1874 11.4067 57.9727 11.304 57.6741 11.304C57.5247 11.304 57.3847 11.3367 57.2541 11.402C57.1234 11.458 57.0114 11.5373 56.9181 11.64C56.8247 11.7427 56.7501 11.8593 56.6941 11.99C56.6381 12.1207 56.6101 12.2607 56.6101 12.41V18.962H58.7661V14.412C58.7661 14.0573 58.8874 13.7587 59.1301 13.516C59.3727 13.264 59.6714 13.138 60.0261 13.138C60.3807 13.138 60.6841 13.264 60.9361 13.516C61.1881 13.768 61.3141 14.0713 61.3141 14.426V18.038C61.3141 18.3367 61.4167 18.5887 61.6221 18.794C61.8367 18.9993 62.0934 19.102 62.3921 19.102C62.5414 19.102 62.6814 19.074 62.8121 19.018C62.9427 18.962 63.0547 18.8873 63.1481 18.794C63.2507 18.6913 63.3301 18.5747 63.3861 18.444C63.4421 18.304 63.4701 18.1593 63.4701 18.01Z" fill="white"/>
<path d="M68.9608 9.064C68.9608 8.896 68.9188 8.74667 68.8348 8.616C68.7601 8.48533 68.6575 8.378 68.5268 8.294C68.4055 8.21 68.2655 8.14933 68.1068 8.112C67.9481 8.06533 67.7941 8.042 67.6448 8.042H67.0428C66.5481 8.042 66.1608 8.18667 65.8808 8.476C65.6101 8.76533 65.4421 9.12 65.3768 9.54C65.3488 9.61467 65.3255 9.74067 65.3068 9.918C65.2975 10.0953 65.2881 10.2867 65.2788 10.492C65.2695 10.688 65.2601 10.8747 65.2508 11.052C65.2508 11.2293 65.2508 11.36 65.2508 11.444C65.1108 11.444 64.9615 11.458 64.8028 11.486C64.6535 11.5047 64.5135 11.5467 64.3828 11.612C64.2615 11.6773 64.1588 11.7707 64.0748 11.892C63.9908 12.0133 63.9488 12.1627 63.9488 12.34C63.9488 12.508 63.9861 12.6573 64.0608 12.788C64.1355 12.9093 64.2288 13.012 64.3408 13.096C64.4621 13.1707 64.5975 13.2267 64.7468 13.264C64.8961 13.3013 65.0408 13.32 65.1808 13.32C65.1901 13.3293 65.1995 13.334 65.2088 13.334C65.2275 13.3247 65.2415 13.32 65.2508 13.32V22.112H67.3928V13.32C67.5421 13.32 67.7008 13.3107 67.8688 13.292C68.0368 13.264 68.1908 13.2173 68.3308 13.152C68.4708 13.0773 68.5875 12.9793 68.6808 12.858C68.7741 12.7367 68.8208 12.5827 68.8208 12.396C68.8208 12.2 68.7741 12.0413 68.6808 11.92C68.5875 11.7987 68.4708 11.7007 68.3308 11.626C68.1908 11.5513 68.0368 11.5 67.8688 11.472C67.7008 11.444 67.5421 11.43 67.3928 11.43V10.338C67.3928 10.226 67.4348 10.142 67.5188 10.086C67.6121 10.03 67.7101 9.99267 67.8128 9.974C68.0928 9.99267 68.3541 9.92733 68.5968 9.778C68.8395 9.62867 68.9608 9.39067 68.9608 9.064Z" fill="white"/>
<path d="M70.83 8.742C70.6154 8.742 70.4287 8.82133 70.27 8.98C70.1207 9.12933 70.046 9.31133 70.046 9.526C70.046 9.75 70.1254 9.94133 70.284 10.1C70.4427 10.2493 70.6294 10.324 70.844 10.324C71.0587 10.324 71.2407 10.2493 71.39 10.1C71.5487 9.94133 71.628 9.75 71.628 9.526C71.628 9.31133 71.5487 9.12933 71.39 8.98C71.2314 8.82133 71.0447 8.742 70.83 8.742ZM71.964 18.962V12.41C71.964 12.27 71.936 12.1347 71.88 12.004C71.824 11.8733 71.7447 11.7613 71.642 11.668C71.5487 11.5653 71.4367 11.486 71.306 11.43C71.1847 11.3647 71.0494 11.332 70.9 11.332C70.6014 11.332 70.3447 11.4347 70.13 11.64C69.9154 11.8453 69.808 12.102 69.808 12.41V18.962H71.964Z" fill="white"/>
<path d="M77.4507 12.382C77.4507 12.1487 77.3714 11.948 77.2127 11.78C77.0634 11.612 76.8814 11.514 76.6667 11.486C76.4801 11.4673 76.2841 11.5047 76.0787 11.598C75.8734 11.6913 75.6914 11.7893 75.5327 11.892C75.3367 12.0227 75.1501 12.1767 74.9727 12.354C74.7954 12.522 74.6601 12.662 74.5667 12.774C74.4734 12.8767 74.4221 12.9373 74.4127 12.956C74.3567 12.7973 74.2867 12.6387 74.2027 12.48C74.1281 12.312 74.0394 12.1673 73.9367 12.046C73.8341 11.9247 73.7221 11.8453 73.6007 11.808C73.4794 11.7613 73.3534 11.7847 73.2227 11.878C73.1201 11.9527 73.0361 12.032 72.9707 12.116C72.9054 12.1907 72.8727 12.2933 72.8727 12.424V18.99L75.0287 18.976V15.588C75.0287 15.3733 75.0381 15.1727 75.0567 14.986C75.0754 14.79 75.1267 14.6127 75.2107 14.454C75.3134 14.258 75.4394 14.0993 75.5887 13.978C75.7381 13.8473 75.8967 13.74 76.0647 13.656C76.2327 13.5627 76.3961 13.4833 76.5547 13.418C76.7227 13.3527 76.8721 13.278 77.0027 13.194C77.1334 13.1007 77.2407 12.9933 77.3247 12.872C77.4087 12.7413 77.4507 12.578 77.4507 12.382Z" fill="white"/>
<path d="M89.4816 18.01V13.95C89.4816 13.5487 89.4116 13.1893 89.2716 12.872C89.1316 12.5453 88.9356 12.27 88.6836 12.046C88.441 11.8127 88.1516 11.6353 87.8156 11.514C87.4796 11.3927 87.1156 11.332 86.7236 11.332C86.2756 11.332 85.8463 11.4253 85.4356 11.612C85.0343 11.7893 84.6936 12.046 84.4136 12.382C84.171 12.0367 83.8536 11.7707 83.4616 11.584C83.079 11.3973 82.673 11.304 82.2436 11.304C81.8796 11.304 81.525 11.3833 81.1796 11.542C80.8436 11.6913 80.5683 11.92 80.3536 12.228C80.335 11.976 80.2603 11.766 80.1296 11.598C79.999 11.4207 79.7936 11.332 79.5136 11.332C79.187 11.332 78.921 11.4347 78.7156 11.64C78.5196 11.836 78.4216 12.0973 78.4216 12.424V18.962H80.5636V14.314C80.5636 13.9873 80.6756 13.7167 80.8996 13.502C81.133 13.278 81.413 13.166 81.7396 13.166C82.057 13.166 82.3276 13.2827 82.5516 13.516C82.785 13.74 82.9016 14.0153 82.9016 14.342V18.962H85.0156V14.342C85.0156 14.0247 85.1276 13.754 85.3516 13.53C85.5756 13.306 85.851 13.194 86.1776 13.194C86.5043 13.194 86.775 13.3107 86.9896 13.544C87.2136 13.768 87.3256 14.0387 87.3256 14.356V18.01C87.3256 18.3087 87.433 18.5653 87.6476 18.78C87.8623 18.9853 88.119 19.088 88.4176 19.088C88.7163 19.088 88.9683 18.9853 89.1736 18.78C89.379 18.5653 89.4816 18.3087 89.4816 18.01Z" fill="white"/>
<path d="M97.4142 18.99V12.382C97.4142 12.1393 97.3488 11.9293 97.2182 11.752C97.0968 11.5747 96.9102 11.4767 96.6582 11.458C96.5088 11.4393 96.3502 11.444 96.1822 11.472C96.0142 11.4907 95.8368 11.5607 95.6502 11.682C95.4635 11.794 95.3422 11.9153 95.2862 12.046C95.2395 12.1767 95.2162 12.242 95.2162 12.242C95.2162 12.242 95.1322 12.2 94.9642 12.116C94.7962 12.0227 94.5768 11.934 94.3062 11.85C94.0448 11.766 93.7415 11.7053 93.3962 11.668C93.0602 11.6213 92.7242 11.64 92.3882 11.724C92.0148 11.8267 91.6835 11.9947 91.3942 12.228C91.1048 12.452 90.8575 12.7227 90.6522 13.04C90.4562 13.348 90.3022 13.6933 90.1902 14.076C90.0875 14.4587 90.0362 14.846 90.0362 15.238C90.0362 15.7513 90.1155 16.2413 90.2742 16.708C90.4422 17.1653 90.6755 17.5713 90.9742 17.926C91.2822 18.2807 91.6508 18.5653 92.0802 18.78C92.5188 18.9853 93.0042 19.088 93.5362 19.088C93.9375 19.088 94.3062 19.004 94.6422 18.836C94.9782 18.668 95.2535 18.4067 95.4682 18.052C95.4682 18.052 95.4635 18.094 95.4542 18.178C95.4542 18.2527 95.4542 18.3413 95.4542 18.444C95.4542 18.5467 95.4542 18.6493 95.4542 18.752C95.4635 18.8547 95.4682 18.934 95.4682 18.99H97.4142ZM95.3422 15.168C95.3422 15.42 95.3142 15.672 95.2582 15.924C95.2115 16.1667 95.1228 16.3907 94.9922 16.596C94.8708 16.792 94.7075 16.9553 94.5022 17.086C94.3062 17.2073 94.0635 17.268 93.7742 17.268C93.4942 17.268 93.2562 17.2073 93.0602 17.086C92.8642 16.9647 92.7008 16.806 92.5702 16.61C92.4488 16.414 92.3555 16.1947 92.2902 15.952C92.2342 15.7093 92.2062 15.4667 92.2062 15.224C92.2062 14.9907 92.2342 14.7527 92.2902 14.51C92.3555 14.2673 92.4535 14.048 92.5842 13.852C92.7148 13.656 92.8782 13.4973 93.0742 13.376C93.2795 13.2547 93.5222 13.194 93.8022 13.194C94.0822 13.194 94.3202 13.2547 94.5162 13.376C94.7122 13.488 94.8708 13.6373 94.9922 13.824C95.1135 14.0107 95.2022 14.2207 95.2582 14.454C95.3142 14.6873 95.3422 14.9253 95.3422 15.168Z" fill="white"/>
<path d="M104.366 16.736C104.366 16.3347 104.273 15.9987 104.086 15.728C103.899 15.448 103.661 15.2147 103.372 15.028C103.092 14.8413 102.784 14.6873 102.448 14.566C102.121 14.4353 101.813 14.3187 101.524 14.216C101.244 14.1133 101.011 14.0107 100.824 13.908C100.637 13.8053 100.544 13.6793 100.544 13.53C100.544 13.4273 100.567 13.3387 100.614 13.264C100.661 13.1893 100.721 13.1287 100.796 13.082C100.871 13.026 100.955 12.9887 101.048 12.97C101.151 12.942 101.249 12.928 101.342 12.928C101.547 12.928 101.743 12.956 101.93 13.012C102.117 13.068 102.294 13.1333 102.462 13.208C102.63 13.2733 102.789 13.334 102.938 13.39C103.087 13.446 103.232 13.474 103.372 13.474C103.587 13.474 103.773 13.3993 103.932 13.25C104.091 13.0913 104.17 12.9 104.17 12.676C104.17 12.424 104.063 12.2093 103.848 12.032C103.633 11.8547 103.377 11.7147 103.078 11.612C102.789 11.5093 102.49 11.4347 102.182 11.388C101.874 11.3413 101.627 11.318 101.44 11.318C101.104 11.318 100.759 11.3647 100.404 11.458C100.059 11.5513 99.7414 11.6913 99.452 11.878C99.1627 12.0647 98.9247 12.3027 98.738 12.592C98.5514 12.872 98.458 13.2033 98.458 13.586C98.458 13.978 98.5514 14.3047 98.738 14.566C98.9247 14.818 99.158 15.0327 99.438 15.21C99.718 15.378 100.021 15.518 100.348 15.63C100.675 15.7327 100.978 15.8353 101.258 15.938C101.538 16.0313 101.771 16.1387 101.958 16.26C102.145 16.372 102.238 16.5213 102.238 16.708C102.238 16.8293 102.205 16.932 102.14 17.016C102.084 17.1 102.009 17.17 101.916 17.226C101.823 17.282 101.72 17.324 101.608 17.352C101.496 17.3707 101.389 17.38 101.286 17.38C101.118 17.38 100.927 17.3567 100.712 17.31C100.507 17.254 100.297 17.1887 100.082 17.114C99.8767 17.03 99.6714 16.9413 99.466 16.848C99.2607 16.7547 99.0834 16.666 98.934 16.582L98.304 18.136C98.7147 18.416 99.1907 18.6447 99.732 18.822C100.273 18.9993 100.801 19.088 101.314 19.088C101.659 19.088 102.014 19.0413 102.378 18.948C102.742 18.8547 103.069 18.71 103.358 18.514C103.657 18.318 103.899 18.0753 104.086 17.786C104.273 17.4873 104.366 17.1373 104.366 16.736Z" fill="white"/>
<path d="M106.486 8.742C106.272 8.742 106.085 8.82133 105.926 8.98C105.777 9.12933 105.702 9.31133 105.702 9.526C105.702 9.75 105.782 9.94133 105.94 10.1C106.099 10.2493 106.286 10.324 106.5 10.324C106.715 10.324 106.897 10.2493 107.046 10.1C107.205 9.94133 107.284 9.75 107.284 9.526C107.284 9.31133 107.205 9.12933 107.046 8.98C106.888 8.82133 106.701 8.742 106.486 8.742ZM107.62 18.962V12.41C107.62 12.27 107.592 12.1347 107.536 12.004C107.48 11.8733 107.401 11.7613 107.298 11.668C107.205 11.5653 107.093 11.486 106.962 11.43C106.841 11.3647 106.706 11.332 106.556 11.332C106.258 11.332 106.001 11.4347 105.786 11.64C105.572 11.8453 105.464 12.102 105.464 12.41V18.962H107.62Z" fill="white"/>
<rect x="3" y="3" width="21" height="21" rx="10.5" fill="#498E4C"/>
<path d="M16.4456 10.2537C16.6184 10.0892 16.8483 9.99822 17.0869 10C17.3255 10.0018 17.5541 10.0963 17.7244 10.2634C17.8947 10.4305 17.9934 10.6572 17.9997 10.8957C18.006 11.1342 17.9194 11.3659 17.7582 11.5417L12.8636 17.663C12.7794 17.7537 12.6778 17.8264 12.5649 17.8769C12.452 17.9274 12.33 17.9546 12.2064 17.9569C12.0827 17.9592 11.9598 17.9366 11.8451 17.8903C11.7304 17.844 11.6262 17.7751 11.5387 17.6876L8.29283 14.4417C8.20243 14.3575 8.12993 14.2559 8.07965 14.143C8.02936 14.0302 8.00232 13.9083 8.00014 13.7848C7.99796 13.6613 8.02069 13.5386 8.06696 13.424C8.11323 13.3095 8.18211 13.2054 8.26947 13.118C8.35684 13.0307 8.4609 12.9618 8.57547 12.9155C8.69003 12.8692 8.81273 12.8465 8.93627 12.8487C9.0598 12.8509 9.18163 12.8779 9.29449 12.9282C9.40734 12.9785 9.50892 13.051 9.59315 13.1414L12.1619 15.7089L16.4223 10.2807C16.4299 10.2712 16.4381 10.2622 16.4468 10.2537H16.4456Z" fill="white"/>
</svg>
